<svg xmlns="http://www.w3.org/2000/svg" enable-background="new 0 0 50 50" viewBox="0 0 50 50" id="phone-security"><path d="M33.3,40.9c0,0.5-0.4,1-1,1H10.9c-0.6,0-1-0.5-1-1V8.1c0-0.6,0.4-1,1-1h21.4c0.6,0,1,0.4,1,1V10c0.6-0.2,1.2-0.3,1.8-0.3
		h1.2c0.1,0,0.3,0,0.4,0V4c0-1.7-1.3-3-3-3H9.5c-1.7,0-3,1.3-3,3v42c0,1.7,1.3,3,3,3h24.2c1.7,0,3-1.3,3-3v-7.6h-3.4V40.9z
		 M23.2,46.1H20c-0.6,0-1-0.4-1-1s0.4-1,1-1h3.2c0.6,0,1,0.4,1,1S23.8,46.1,23.2,46.1z"></path><path d="M35.1 11.7c-2.4 0-4.4 2-4.4 4.4v3.6c.1 0 .2 0 .3 0h1.7v-3.6c0-1.3 1.1-2.4 2.4-2.4h1.2c1.3 0 2.4 1.1 2.4 2.4v3.6h1.8c.1 0 .2 0 .3 0v-3.6c0-2.4-2-4.4-4.4-4.4H35.1zM40.5 21.8H31c-1.7 0-3 1.3-3 3v8.7c0 1.7 1.3 3 3 3h9.5c1.7 0 3-1.3 3-3v-8.7C43.5 23.1 42.1 21.8 40.5 21.8zM36.7 30.6c0 .6-.4 1-1 1s-1-.4-1-1v-3c0-.6.4-1 1-1s1 .4 1 1V30.6z"></path></svg>